M48
; DRILL file {KiCad (5.1.6)-1} date 07/06/20 13:09:18
; FORMAT={-:-/ absolute / inch / decimal}
; #@! TF.CreationDate,2020-07-06T13:09:18-04:00
; #@! TF.GenerationSoftware,Kicad,Pcbnew,(5.1.6)-1
; #@! TF.FileFunction,Plated,1,2,PTH
FMAT,2
INCH
T1C0.0394
%
G90
G05
T1
X3.33Y-2.63
X4.31Y-2.08
X2.84Y-2.91
X4.81Y-3.19
X2.84Y-3.46
X4.31Y-2.36
X4.81Y-2.36
X4.31Y-3.19
X2.34Y-3.18
X3.82Y-2.08
X3.82Y-2.63
X2.84Y-2.63
X4.81Y-2.91
X4.81Y-2.08
X2.34Y-2.35
X3.33Y-2.08
X2.84Y-2.35
X3.33Y-2.91
X4.81Y-2.63
X2.34Y-2.08
X2.34Y-3.46
X3.33Y-3.18
X3.82Y-3.19
X4.31Y-2.91
X2.84Y-2.08
X3.82Y-3.46
X3.33Y-3.46
X3.33Y-2.35
X4.31Y-2.63
X3.82Y-2.36
X2.34Y-2.63
X3.82Y-2.91
X2.84Y-3.18
X4.81Y-3.46
X4.31Y-3.46
X2.34Y-2.91
T0
M30
