%TF.GenerationSoftware,KiCad,Pcbnew,(5.1.6)-1*%
%TF.CreationDate,2020-07-06T13:03:39-04:00*%
%TF.ProjectId,HVPatchBoard,48565061-7463-4684-926f-6172642e6b69,rev?*%
%TF.SameCoordinates,Original*%
%TF.FileFunction,Copper,L1,Top*%
%TF.FilePolarity,Positive*%
%FSLAX46Y46*%
G04 Gerber Fmt 4.6, Leading zero omitted, Abs format (unit mm)*
G04 Created by KiCad (PCBNEW (5.1.6)-1) date 2020-07-06 13:03:39*
%MOMM*%
%LPD*%
G01*
G04 APERTURE LIST*
%TA.AperFunction,ComponentPad*%
%ADD10C,2.000000*%
%TD*%
%TA.AperFunction,Conductor*%
%ADD11C,0.250000*%
%TD*%
G04 APERTURE END LIST*
D10*
%TO.P,J4,1*%
%TO.N,Net-(J2-Pad1)*%
X122174000Y-66802000D03*
%TD*%
%TO.P,J3,1*%
%TO.N,Net-(J3-Pad1)*%
X122174000Y-73914000D03*
%TD*%
%TO.P,J5,1*%
%TO.N,Net-(J3-Pad1)*%
X122174000Y-59944000D03*
%TD*%
%TO.P,J6,1*%
%TO.N,Net-(J1-Pad1)*%
X122174000Y-52832000D03*
%TD*%
%TO.P,J1,1*%
%TO.N,Net-(J1-Pad1)*%
X122174000Y-87884000D03*
%TD*%
%TO.P,J2,1*%
%TO.N,Net-(J2-Pad1)*%
X122174000Y-81026000D03*
%TD*%
%TO.P,J4,1*%
%TO.N,Net-(J2-Pad1)*%
X97028000Y-66802000D03*
%TD*%
%TO.P,J4,1*%
%TO.N,Net-(J2-Pad1)*%
X109474000Y-66802000D03*
%TD*%
%TO.P,J3,1*%
%TO.N,Net-(J3-Pad1)*%
X109474000Y-73914000D03*
%TD*%
%TO.P,J6,1*%
%TO.N,Net-(J1-Pad1)*%
X109474000Y-52832000D03*
%TD*%
%TO.P,J1,1*%
%TO.N,Net-(J1-Pad1)*%
X109474000Y-87884000D03*
%TD*%
%TO.P,J1,1*%
%TO.N,Net-(J1-Pad1)*%
X97028000Y-87884000D03*
%TD*%
%TO.P,J2,1*%
%TO.N,Net-(J2-Pad1)*%
X109474000Y-81026000D03*
%TD*%
%TO.P,J5,1*%
%TO.N,Net-(J3-Pad1)*%
X109474000Y-59944000D03*
%TD*%
%TO.P,J5,1*%
%TO.N,Net-(J3-Pad1)*%
X97028000Y-59944000D03*
%TD*%
%TO.P,J2,1*%
%TO.N,Net-(J2-Pad1)*%
X97028000Y-81026000D03*
%TD*%
%TO.P,J6,1*%
%TO.N,Net-(J1-Pad1)*%
X97028000Y-52832000D03*
%TD*%
%TO.P,J3,1*%
%TO.N,Net-(J3-Pad1)*%
X97028000Y-73914000D03*
%TD*%
%TO.P,J4,1*%
%TO.N,Net-(J2-Pad1)*%
X84582000Y-73914000D03*
%TD*%
%TO.P,J4,1*%
%TO.N,Net-(J2-Pad1)*%
X72136000Y-73914000D03*
%TD*%
%TO.P,J3,1*%
%TO.N,Net-(J3-Pad1)*%
X84582000Y-66802000D03*
%TD*%
%TO.P,J3,1*%
%TO.N,Net-(J3-Pad1)*%
X72136000Y-66802000D03*
%TD*%
%TO.P,J5,1*%
%TO.N,Net-(J3-Pad1)*%
X84582000Y-80772000D03*
%TD*%
%TO.P,J5,1*%
%TO.N,Net-(J3-Pad1)*%
X72136000Y-80772000D03*
%TD*%
%TO.P,J6,1*%
%TO.N,Net-(J1-Pad1)*%
X84582000Y-87884000D03*
%TD*%
%TO.P,J6,1*%
%TO.N,Net-(J1-Pad1)*%
X72136000Y-87884000D03*
%TD*%
%TO.P,J1,1*%
%TO.N,Net-(J1-Pad1)*%
X84582000Y-52832000D03*
%TD*%
%TO.P,J1,1*%
%TO.N,Net-(J1-Pad1)*%
X72136000Y-52832000D03*
%TD*%
%TO.P,J2,1*%
%TO.N,Net-(J2-Pad1)*%
X84582000Y-59690000D03*
%TD*%
%TO.P,J2,1*%
%TO.N,Net-(J2-Pad1)*%
X72136000Y-59690000D03*
%TD*%
%TO.P,J6,1*%
%TO.N,Net-(J1-Pad1)*%
X59436000Y-87884000D03*
%TD*%
%TO.P,J5,1*%
%TO.N,Net-(J3-Pad1)*%
X59436000Y-80772000D03*
%TD*%
%TO.P,J4,1*%
%TO.N,Net-(J2-Pad1)*%
X59436000Y-73914000D03*
%TD*%
%TO.P,J3,1*%
%TO.N,Net-(J3-Pad1)*%
X59436000Y-66802000D03*
%TD*%
%TO.P,J2,1*%
%TO.N,Net-(J2-Pad1)*%
X59436000Y-59690000D03*
%TD*%
%TO.P,J1,1*%
%TO.N,Net-(J1-Pad1)*%
X59436000Y-52832000D03*
%TD*%
D11*
%TO.N,Net-(J1-Pad1)*%
X59436000Y-52832000D02*
X64516000Y-57912000D01*
X64516000Y-82804000D02*
X59436000Y-87884000D01*
X64516000Y-57912000D02*
X64516000Y-82804000D01*
X72136000Y-52832000D02*
X77216000Y-57912000D01*
X84582000Y-52832000D02*
X89662000Y-57912000D01*
X77216000Y-82804000D02*
X72136000Y-87884000D01*
X89662000Y-82804000D02*
X84582000Y-87884000D01*
X77216000Y-57912000D02*
X77216000Y-82804000D01*
X89662000Y-57912000D02*
X89662000Y-82804000D01*
X122174000Y-87884000D02*
X117094000Y-82804000D01*
X117094000Y-57912000D02*
X122174000Y-52832000D01*
X117094000Y-82804000D02*
X117094000Y-57912000D01*
X104394000Y-57912000D02*
X109474000Y-52832000D01*
X91948000Y-57912000D02*
X97028000Y-52832000D01*
X104394000Y-82804000D02*
X104394000Y-57912000D01*
X91948000Y-82804000D02*
X91948000Y-57912000D01*
X97028000Y-87884000D02*
X91948000Y-82804000D01*
X109474000Y-87884000D02*
X104394000Y-82804000D01*
%TO.N,Net-(J2-Pad1)*%
X57404000Y-71882000D02*
X59436000Y-73914000D01*
X56388000Y-70866000D02*
X57404000Y-71882000D01*
X59436000Y-59690000D02*
X56388000Y-62738000D01*
X56388000Y-62738000D02*
X56388000Y-70866000D01*
X72136000Y-59690000D02*
X69088000Y-62738000D01*
X84582000Y-59690000D02*
X81534000Y-62738000D01*
X70104000Y-71882000D02*
X72136000Y-73914000D01*
X82550000Y-71882000D02*
X84582000Y-73914000D01*
X69088000Y-70866000D02*
X70104000Y-71882000D01*
X81534000Y-70866000D02*
X82550000Y-71882000D01*
X69088000Y-62738000D02*
X69088000Y-70866000D01*
X81534000Y-62738000D02*
X81534000Y-70866000D01*
X122174000Y-81026000D02*
X125222000Y-77978000D01*
X124206000Y-68834000D02*
X122174000Y-66802000D01*
X125222000Y-69850000D02*
X124206000Y-68834000D01*
X125222000Y-77978000D02*
X125222000Y-69850000D01*
X109474000Y-81026000D02*
X112522000Y-77978000D01*
X100076000Y-69850000D02*
X99060000Y-68834000D01*
X112522000Y-77978000D02*
X112522000Y-69850000D01*
X112522000Y-69850000D02*
X111506000Y-68834000D01*
X100076000Y-77978000D02*
X100076000Y-69850000D01*
X99060000Y-68834000D02*
X97028000Y-66802000D01*
X111506000Y-68834000D02*
X109474000Y-66802000D01*
X97028000Y-81026000D02*
X100076000Y-77978000D01*
%TO.N,Net-(J3-Pad1)*%
X61722000Y-69088000D02*
X59436000Y-66802000D01*
X62484000Y-69850000D02*
X61722000Y-69088000D01*
X59436000Y-80772000D02*
X62484000Y-77724000D01*
X62484000Y-77724000D02*
X62484000Y-69850000D01*
X74422000Y-69088000D02*
X72136000Y-66802000D01*
X86868000Y-69088000D02*
X84582000Y-66802000D01*
X72136000Y-80772000D02*
X75184000Y-77724000D01*
X84582000Y-80772000D02*
X87630000Y-77724000D01*
X75184000Y-77724000D02*
X75184000Y-69850000D01*
X87630000Y-77724000D02*
X87630000Y-69850000D01*
X75184000Y-69850000D02*
X74422000Y-69088000D01*
X87630000Y-69850000D02*
X86868000Y-69088000D01*
X119888000Y-71628000D02*
X122174000Y-73914000D01*
X122174000Y-59944000D02*
X119126000Y-62992000D01*
X119126000Y-62992000D02*
X119126000Y-70866000D01*
X119126000Y-70866000D02*
X119888000Y-71628000D01*
X97028000Y-59944000D02*
X93980000Y-62992000D01*
X106426000Y-62992000D02*
X106426000Y-70866000D01*
X106426000Y-70866000D02*
X107188000Y-71628000D01*
X93980000Y-62992000D02*
X93980000Y-70866000D01*
X107188000Y-71628000D02*
X109474000Y-73914000D01*
X93980000Y-70866000D02*
X94742000Y-71628000D01*
X109474000Y-59944000D02*
X106426000Y-62992000D01*
X94742000Y-71628000D02*
X97028000Y-73914000D01*
%TD*%
M02*
